<svg width="111.4" height="26.15" viewBox="0 0 111.4 26.15" xmlns="http://www.w3.org/2000/svg"><g id="svgGroup" stroke-linecap="round" fill-rule="evenodd" font-size="9pt" stroke="#ffffff" stroke-width="0.25mm" fill="#ffffff" style="stroke:#ffffff;stroke-width:0.25mm;fill:#ffffff"><path d="M 107.675 5.75 L 111.4 5.75 L 102.825 26.15 L 99.1 26.15 L 102.1 19.25 L 96.55 5.75 L 100.475 5.75 L 104.05 15.425 L 107.675 5.75 Z M 0 2.15 L 10.775 2.15 L 10.775 4.975 L 3.5 4.975 L 3.5 9.45 L 9.075 9.45 L 9.075 12.225 L 3.5 12.225 L 3.5 19.6 L 0 19.6 L 0 2.15 Z M 91.2 7.725 L 91.2 5.75 L 94.725 5.75 L 94.725 19.6 L 91.2 19.6 L 91.2 17.575 A 4.922 4.922 0 0 1 89.965 18.802 A 6.17 6.17 0 0 1 89.337 19.188 A 5.327 5.327 0 0 1 87.533 19.763 A 6.792 6.792 0 0 1 86.6 19.825 Q 84.85 19.825 83.413 18.925 A 6.184 6.184 0 0 1 81.356 16.785 A 7.488 7.488 0 0 1 81.137 16.388 Q 80.3 14.75 80.3 12.625 A 8.976 8.976 0 0 1 80.523 10.586 A 7.253 7.253 0 0 1 81.138 8.9 A 6.514 6.514 0 0 1 82.344 7.235 A 5.822 5.822 0 0 1 83.413 6.4 Q 84.85 5.525 86.625 5.525 A 6.525 6.525 0 0 1 87.993 5.662 A 5.06 5.06 0 0 1 89.337 6.15 A 5.949 5.949 0 0 1 90.527 6.981 A 5.05 5.05 0 0 1 91.2 7.725 Z M 65.475 12.9 L 62.55 12.9 L 62.55 19.6 L 59.05 19.6 L 59.05 2.15 L 65.475 2.15 A 9.814 9.814 0 0 1 67.021 2.266 Q 67.897 2.405 68.628 2.715 A 5.781 5.781 0 0 1 68.925 2.85 A 5.409 5.409 0 0 1 70.189 3.696 A 4.526 4.526 0 0 1 71.063 4.775 Q 71.775 6 71.775 7.55 Q 71.775 8.95 71.113 10.175 A 4.583 4.583 0 0 1 69.744 11.711 A 5.968 5.968 0 0 1 69.037 12.15 A 5.967 5.967 0 0 1 67.551 12.688 Q 66.865 12.844 66.067 12.885 A 11.464 11.464 0 0 1 65.475 12.9 Z M 19.4 19.825 Q 17.4 19.825 15.8 18.938 Q 14.2 18.05 13.288 16.425 A 7.105 7.105 0 0 1 12.447 13.831 A 9.007 9.007 0 0 1 12.375 12.675 A 8.189 8.189 0 0 1 12.624 10.617 A 6.756 6.756 0 0 1 13.313 8.925 Q 14.25 7.3 15.875 6.413 A 7.325 7.325 0 0 1 19.067 5.536 A 8.749 8.749 0 0 1 19.5 5.525 A 7.771 7.771 0 0 1 21.957 5.905 A 7.061 7.061 0 0 1 23.125 6.413 Q 24.75 7.3 25.688 8.925 A 7.005 7.005 0 0 1 26.565 11.628 A 8.846 8.846 0 0 1 26.625 12.675 A 7.963 7.963 0 0 1 26.357 14.777 A 6.651 6.651 0 0 1 25.662 16.425 Q 24.7 18.05 23.063 18.938 Q 21.425 19.825 19.4 19.825 Z M 49.25 19.825 Q 47.25 19.825 45.65 18.938 Q 44.05 18.05 43.138 16.425 A 7.105 7.105 0 0 1 42.297 13.831 A 9.007 9.007 0 0 1 42.225 12.675 A 8.189 8.189 0 0 1 42.474 10.617 A 6.756 6.756 0 0 1 43.163 8.925 Q 44.1 7.3 45.725 6.413 A 7.325 7.325 0 0 1 48.917 5.536 A 8.749 8.749 0 0 1 49.35 5.525 A 7.771 7.771 0 0 1 51.807 5.905 A 7.061 7.061 0 0 1 52.975 6.413 Q 54.6 7.3 55.538 8.925 A 7.005 7.005 0 0 1 56.415 11.628 A 8.846 8.846 0 0 1 56.475 12.675 A 7.963 7.963 0 0 1 56.207 14.777 A 6.651 6.651 0 0 1 55.512 16.425 Q 54.55 18.05 52.913 18.938 Q 51.275 19.825 49.25 19.825 Z M 29.2 1.1 L 32.7 1.1 L 32.7 19.6 L 29.2 19.6 L 29.2 1.1 Z M 74.25 1.1 L 77.75 1.1 L 77.75 19.6 L 74.25 19.6 L 74.25 1.1 Z M 36.15 5.75 L 39.65 5.75 L 39.65 19.6 L 36.15 19.6 L 36.15 5.75 Z M 91.2 12.675 A 5.439 5.439 0 0 0 91.104 11.629 A 3.932 3.932 0 0 0 90.7 10.488 Q 90.2 9.575 89.35 9.088 Q 88.5 8.6 87.525 8.6 Q 86.55 8.6 85.725 9.075 A 3.482 3.482 0 0 0 84.564 10.175 A 4.274 4.274 0 0 0 84.388 10.463 A 3.93 3.93 0 0 0 83.947 11.735 A 5.276 5.276 0 0 0 83.875 12.625 A 5.153 5.153 0 0 0 83.995 13.763 A 4.026 4.026 0 0 0 84.388 14.813 A 3.941 3.941 0 0 0 85.1 15.761 A 3.469 3.469 0 0 0 85.737 16.25 Q 86.575 16.75 87.525 16.75 Q 88.5 16.75 89.35 16.263 Q 90.2 15.775 90.7 14.863 A 3.948 3.948 0 0 0 91.111 13.686 A 5.472 5.472 0 0 0 91.2 12.675 Z M 19.4 16.775 Q 20.35 16.775 21.188 16.313 A 3.274 3.274 0 0 0 22.361 15.203 A 4.058 4.058 0 0 0 22.525 14.925 A 3.979 3.979 0 0 0 22.915 13.829 Q 23.025 13.296 23.025 12.675 A 6.02 6.02 0 0 0 22.913 11.477 Q 22.685 10.351 21.987 9.638 A 3.403 3.403 0 0 0 19.52 8.576 A 4.19 4.19 0 0 0 19.45 8.575 A 3.476 3.476 0 0 0 17.994 8.875 A 3.398 3.398 0 0 0 16.937 9.638 A 3.442 3.442 0 0 0 16.14 11.048 Q 15.925 11.765 15.925 12.675 Q 15.925 14.65 16.912 15.713 A 3.231 3.231 0 0 0 19.261 16.773 A 4.136 4.136 0 0 0 19.4 16.775 Z M 49.25 16.775 Q 50.2 16.775 51.038 16.313 A 3.274 3.274 0 0 0 52.211 15.203 A 4.058 4.058 0 0 0 52.375 14.925 A 3.979 3.979 0 0 0 52.765 13.829 Q 52.875 13.296 52.875 12.675 A 6.02 6.02 0 0 0 52.763 11.477 Q 52.535 10.351 51.838 9.638 A 3.403 3.403 0 0 0 49.37 8.576 A 4.19 4.19 0 0 0 49.3 8.575 A 3.476 3.476 0 0 0 47.844 8.875 A 3.398 3.398 0 0 0 46.787 9.638 A 3.442 3.442 0 0 0 45.99 11.048 Q 45.775 11.765 45.775 12.675 Q 45.775 14.65 46.763 15.713 A 3.231 3.231 0 0 0 49.111 16.773 A 4.136 4.136 0 0 0 49.25 16.775 Z M 65.325 5 L 62.55 5 L 62.55 10.075 L 65.325 10.075 Q 66.775 10.075 67.475 9.413 A 2.164 2.164 0 0 0 68.092 8.312 A 3.3 3.3 0 0 0 68.175 7.55 Q 68.175 5.057 65.451 5.001 A 6.16 6.16 0 0 0 65.325 5 Z M 37.151 3.979 A 2.392 2.392 0 0 0 37.925 4.1 A 2.77 2.77 0 0 0 38.11 4.094 A 2.092 2.092 0 0 0 39.463 3.513 Q 40.075 2.925 40.075 2.05 A 2.463 2.463 0 0 0 40.074 1.996 A 1.936 1.936 0 0 0 39.462 0.588 A 2.04 2.04 0 0 0 38.699 0.121 A 2.392 2.392 0 0 0 37.925 0 A 2.77 2.77 0 0 0 37.74 0.006 A 2.092 2.092 0 0 0 36.387 0.588 Q 35.775 1.175 35.775 2.05 A 2.463 2.463 0 0 0 35.776 2.105 A 1.936 1.936 0 0 0 36.388 3.513 A 2.04 2.04 0 0 0 37.151 3.979 Z" vector-effect="non-scaling-stroke"/></g></svg>