<svg width="400" height="52" viewBox="0 0 517.5 71.503" xmlns="http://www.w3.org/2000/svg"><g id="svgGroup" stroke-linecap="round" fill-rule="evenodd" font-size="9pt" stroke="#ffffff" stroke-width="0.25mm" fill="#ffffff" style="stroke:#ffffff;stroke-width:0.25mm;fill:#ffffff"><path d="M 0 1.002 L 43.1 1.002 L 43.1 12.302 L 14 12.302 L 14 30.202 L 36.3 30.202 L 36.3 41.302 L 14 41.302 L 14 70.802 L 0 70.802 L 0 1.002 Z M 501.9 1.002 L 517.5 1.002 L 493.9 46.502 L 493.9 70.802 L 479.9 70.802 L 479.9 46.502 L 456.2 1.002 L 472 1.002 L 487 32.902 L 501.9 1.002 Z M 437.8 70.802 L 433.2 57.502 L 405.4 57.502 L 400.8 70.802 L 386.1 70.802 L 411.2 0.902 L 427.5 0.902 L 452.6 70.802 L 437.8 70.802 Z M 85.4 71.502 Q 75.6 71.502 67.4 66.902 Q 59.2 62.302 54.4 54.152 A 34.952 34.952 0 0 1 49.685 38.4 A 42.463 42.463 0 0 1 49.6 35.702 A 37.191 37.191 0 0 1 51.522 23.613 A 33.842 33.842 0 0 1 54.4 17.352 Q 59.2 9.202 67.4 4.602 Q 75.6 0.002 85.4 0.002 A 36.781 36.781 0 0 1 99.534 2.698 A 35.241 35.241 0 0 1 103.45 4.602 Q 111.6 9.202 116.35 17.352 A 35.206 35.206 0 0 1 121.043 33.495 A 42.426 42.426 0 0 1 121.1 35.702 A 38.256 38.256 0 0 1 119.425 47.175 A 33.888 33.888 0 0 1 116.35 54.152 Q 111.6 62.302 103.4 66.902 Q 95.2 71.502 85.4 71.502 Z M 237.6 71.502 Q 227.8 71.502 219.6 66.902 Q 211.4 62.302 206.6 54.152 A 34.952 34.952 0 0 1 201.885 38.4 A 42.463 42.463 0 0 1 201.8 35.702 A 37.191 37.191 0 0 1 203.722 23.613 A 33.842 33.842 0 0 1 206.6 17.352 Q 211.4 9.202 219.6 4.602 Q 227.8 0.002 237.6 0.002 A 36.781 36.781 0 0 1 251.734 2.698 A 35.241 35.241 0 0 1 255.65 4.602 Q 263.8 9.202 268.55 17.352 A 35.206 35.206 0 0 1 273.243 33.495 A 42.426 42.426 0 0 1 273.3 35.702 A 38.256 38.256 0 0 1 271.625 47.175 A 33.888 33.888 0 0 1 268.55 54.152 Q 263.8 62.302 255.6 66.902 Q 247.4 71.502 237.6 71.502 Z M 309.4 44.002 L 297.7 44.002 L 297.7 70.802 L 283.7 70.802 L 283.7 1.002 L 309.4 1.002 Q 316.673 1.002 322.012 3.259 A 23.122 23.122 0 0 1 323.2 3.802 A 21.635 21.635 0 0 1 328.254 7.187 A 18.105 18.105 0 0 1 331.75 11.502 A 21.146 21.146 0 0 1 334.53 20.696 A 25.73 25.73 0 0 1 334.6 22.602 Q 334.6 28.202 331.95 33.102 A 18.333 18.333 0 0 1 326.478 39.246 A 23.873 23.873 0 0 1 323.65 41.002 A 23.866 23.866 0 0 1 317.705 43.155 Q 314.961 43.777 311.768 43.942 A 45.857 45.857 0 0 1 309.4 44.002 Z M 145.5 1.002 L 145.5 59.702 L 168.5 59.702 L 168.5 70.802 L 131.5 70.802 L 131.5 1.002 L 145.5 1.002 Z M 358.5 1.002 L 358.5 59.702 L 381.5 59.702 L 381.5 70.802 L 344.5 70.802 L 344.5 1.002 L 358.5 1.002 Z M 177.4 1.002 L 191.4 1.002 L 191.4 70.802 L 177.4 70.802 L 177.4 1.002 Z M 85.4 59.002 A 23.653 23.653 0 0 0 91.498 58.244 A 19.622 19.622 0 0 0 96.5 56.152 A 19.377 19.377 0 0 0 103.654 48.655 A 23.272 23.272 0 0 0 104 48.002 A 24.474 24.474 0 0 0 106.351 40.513 A 32.032 32.032 0 0 0 106.7 35.702 A 30.76 30.76 0 0 0 106.107 29.524 A 23.526 23.526 0 0 0 104 23.452 A 19.936 19.936 0 0 0 99.456 17.531 A 18.765 18.765 0 0 0 96.5 15.402 A 20.549 20.549 0 0 0 88.503 12.782 A 26.006 26.006 0 0 0 85.4 12.602 Q 79.1 12.602 74.25 15.402 A 19.138 19.138 0 0 0 66.785 23.288 A 22.877 22.877 0 0 0 66.7 23.452 A 24.004 24.004 0 0 0 64.38 30.698 A 31.734 31.734 0 0 0 64 35.702 A 30.772 30.772 0 0 0 64.633 42.084 A 23.86 23.86 0 0 0 66.7 48.002 A 19.98 19.98 0 0 0 71.494 54.187 A 19.058 19.058 0 0 0 74.25 56.152 A 20.73 20.73 0 0 0 82.701 58.864 A 25.908 25.908 0 0 0 85.4 59.002 Z M 237.6 59.002 A 23.653 23.653 0 0 0 243.698 58.244 A 19.622 19.622 0 0 0 248.7 56.152 A 19.377 19.377 0 0 0 255.854 48.655 A 23.272 23.272 0 0 0 256.2 48.002 A 24.474 24.474 0 0 0 258.551 40.513 A 32.032 32.032 0 0 0 258.9 35.702 A 30.76 30.76 0 0 0 258.307 29.524 A 23.526 23.526 0 0 0 256.2 23.452 A 19.936 19.936 0 0 0 251.656 17.531 A 18.765 18.765 0 0 0 248.7 15.402 A 20.549 20.549 0 0 0 240.703 12.782 A 26.006 26.006 0 0 0 237.6 12.602 Q 231.3 12.602 226.45 15.402 A 19.138 19.138 0 0 0 218.985 23.288 A 22.877 22.877 0 0 0 218.9 23.452 A 24.004 24.004 0 0 0 216.58 30.698 A 31.734 31.734 0 0 0 216.2 35.702 A 30.772 30.772 0 0 0 216.833 42.084 A 23.86 23.86 0 0 0 218.9 48.002 A 19.98 19.98 0 0 0 223.694 54.187 A 19.058 19.058 0 0 0 226.45 56.152 A 20.73 20.73 0 0 0 234.901 58.864 A 25.908 25.908 0 0 0 237.6 59.002 Z M 409.2 46.302 L 429.4 46.302 L 419.3 17.102 L 409.2 46.302 Z M 308.8 12.402 L 297.7 12.402 L 297.7 32.702 L 308.8 32.702 A 20.157 20.157 0 0 0 311.97 32.47 Q 313.618 32.207 314.929 31.645 A 8.321 8.321 0 0 0 317.4 30.052 A 8.656 8.656 0 0 0 319.869 25.648 A 13.199 13.199 0 0 0 320.2 22.602 A 13.025 13.025 0 0 0 319.574 18.381 Q 317.528 12.402 308.8 12.402 Z" vector-effect="non-scaling-stroke"/></g></svg>
