<?xml version="1.0" standalone="no"?>
<!DOCTYPE svg PUBLIC "-//W3C//DTD SVG 20010904//EN"
 "http://www.w3.org/TR/2001/REC-SVG-20010904/DTD/svg10.dtd">
<svg version="1.0" xmlns="http://www.w3.org/2000/svg"
 width="171.000000pt" height="147.000000pt" viewBox="0 0 171.000000 147.000000"
 preserveAspectRatio="xMidYMid meet">
<metadata>
Created by potrace 1.16, written by Peter Selinger 2001-2019
</metadata>
<g transform="translate(0.000000,147.000000) scale(0.100000,-0.100000)"
fill="#000000" stroke="none">
<path d="M0 735 l0 -735 855 0 855 0 0 735 0 735 -855 0 -855 0 0 -735z m1200
525 c0 -74 -1 -80 -27 -98 -51 -35 -580 -332 -592 -332 -7 0 -44 18 -82 40
l-69 41 0 84 c0 47 2 85 4 85 2 0 36 -18 75 -41 l71 -41 303 175 c166 96 305
172 310 170 4 -2 7 -40 7 -83z m78 -313 c71 -66 -46 -124 -156 -77 -83 36 -83
42 0 88 70 39 73 40 103 25 16 -8 40 -25 53 -36z m249 -126 c-14 -132 -62
-202 -164 -242 -48 -19 -76 -23 -163 -23 -93 1 -115 4 -192 33 -49 18 -91 37
-94 42 -11 19 -44 6 -186 -75 l-146 -84 -74 42 -73 42 -3 88 -3 88 76 -42 76
-42 151 87 151 86 80 -36 c150 -69 279 -80 399 -35 62 23 122 77 140 127 10
28 14 30 21 17 5 -9 7 -42 4 -73z m-972 -513 c16 -14 31 -9 103 32 38 22 71
40 73 40 2 0 3 -39 1 -88 l-3 -87 -74 -42 -73 -42 -76 42 -76 42 0 88 0 88 58
-32 c31 -17 61 -36 67 -41z"/>
</g>
</svg>
