<svg width="1117.4" height="145.408" viewBox="0 0 1117.4 145.408" xmlns="http://www.w3.org/2000/svg"><g id="svgGroup" stroke-linecap="round" fill-rule="evenodd" font-size="9pt" stroke="#000" stroke-width="0.25mm" fill="#000" style="stroke:#000;stroke-width:0.25mm;fill:#000"><path d="M 0 2.404 L 100 2.404 L 100 37.604 L 44.4 37.604 L 44.4 57.204 L 84.4 57.204 L 84.4 90.604 L 44.4 90.604 L 44.4 144.004 L 0 144.004 L 0 2.404 Z M 1067.4 2.404 L 1117.4 2.404 L 1066.6 101.004 L 1066.6 144.004 L 1022.2 144.004 L 1022.2 101.004 L 971.4 2.404 L 1022.2 2.404 L 1044.8 52.604 L 1067.4 2.404 Z M 924.6 144.004 L 917.6 122.604 L 870.4 122.604 L 863.4 144.004 L 816.8 144.004 L 868.6 2.404 L 919.8 2.404 L 971.4 144.004 L 924.6 144.004 Z M 657.8 99.004 L 640.2 99.004 L 640.2 144.004 L 595.8 144.004 L 595.8 2.404 L 657.8 2.404 A 81.99 81.99 0 0 1 673.387 3.792 Q 682.246 5.509 689.156 9.351 A 41.949 41.949 0 0 1 697.7 15.604 A 43.858 43.858 0 0 1 710.911 41.564 A 62.295 62.295 0 0 1 711.6 51.004 A 49.917 49.917 0 0 1 708.67 68.248 A 46.466 46.466 0 0 1 705.4 75.304 A 43.216 43.216 0 0 1 690.386 90.715 A 53.117 53.117 0 0 1 687.1 92.604 Q 675.532 98.723 659.302 98.992 A 90.665 90.665 0 0 1 657.8 99.004 Z M 147.3 136.004 A 73.537 73.537 0 0 0 184 145.404 Q 203.8 145.404 220.5 136.004 Q 237.2 126.604 246.9 110.004 A 69.151 69.151 0 0 0 252.811 96.964 A 76.505 76.505 0 0 0 256.6 72.604 A 85.998 85.998 0 0 0 256.448 67.47 A 71.458 71.458 0 0 0 246.9 35.204 Q 237.2 18.604 220.6 9.304 Q 204 0.004 184 0.004 Q 164 0.004 147.3 9.304 Q 130.6 18.604 120.8 35.204 Q 111 51.804 111 72.604 Q 111 93.404 120.8 110.004 Q 130.6 126.604 147.3 136.004 Z M 470.5 136.004 A 73.537 73.537 0 0 0 507.2 145.404 Q 527 145.404 543.7 136.004 Q 560.4 126.604 570.1 110.004 A 69.151 69.151 0 0 0 576.011 96.964 A 76.505 76.505 0 0 0 579.8 72.604 A 85.998 85.998 0 0 0 579.648 67.47 A 71.458 71.458 0 0 0 570.1 35.204 Q 560.4 18.604 543.8 9.304 Q 527.2 0.004 507.2 0.004 Q 487.2 0.004 470.5 9.304 Q 453.8 18.604 444 35.204 Q 434.2 51.804 434.2 72.604 Q 434.2 93.404 444 110.004 Q 453.8 126.604 470.5 136.004 Z M 317 2.404 L 317 110.404 L 359.8 110.404 L 359.8 144.004 L 272.6 144.004 L 272.6 2.404 L 317 2.404 Z M 770 2.404 L 770 110.404 L 812.8 110.404 L 812.8 144.004 L 725.6 144.004 L 725.6 2.404 L 770 2.404 Z M 373.8 2.404 L 418.2 2.404 L 418.2 144.004 L 373.8 144.004 L 373.8 2.404 Z M 184 104.004 A 32.764 32.764 0 0 0 192.54 102.954 A 22.997 22.997 0 0 0 204.4 95.504 Q 211.009 87.701 211.552 74.927 A 54.783 54.783 0 0 0 211.6 72.604 A 48.001 48.001 0 0 0 210.749 63.287 Q 209.633 57.646 207.05 53.247 A 26.648 26.648 0 0 0 204.4 49.504 A 23.431 23.431 0 0 0 190.225 41.535 A 34.822 34.822 0 0 0 184 41.004 A 33.739 33.739 0 0 0 175.52 42.009 A 23.037 23.037 0 0 0 163.4 49.504 Q 156.2 58.004 156.2 72.604 A 46.716 46.716 0 0 0 157.09 82 Q 158.27 87.745 161.013 92.208 A 26.836 26.836 0 0 0 163.4 95.504 Q 170.6 104.004 184 104.004 Z M 507.2 104.004 A 32.764 32.764 0 0 0 515.74 102.954 A 22.997 22.997 0 0 0 527.6 95.504 Q 534.209 87.701 534.752 74.927 A 54.783 54.783 0 0 0 534.8 72.604 A 48.001 48.001 0 0 0 533.949 63.287 Q 532.833 57.646 530.25 53.247 A 26.648 26.648 0 0 0 527.6 49.504 A 23.431 23.431 0 0 0 513.425 41.535 A 34.822 34.822 0 0 0 507.2 41.004 A 33.739 33.739 0 0 0 498.72 42.009 A 23.037 23.037 0 0 0 486.6 49.504 Q 479.4 58.004 479.4 72.604 A 46.716 46.716 0 0 0 480.29 82 Q 481.47 87.745 484.213 92.208 A 26.836 26.836 0 0 0 486.6 95.504 Q 493.8 104.004 507.2 104.004 Z M 881.2 89.204 L 906.8 89.204 L 894 49.804 L 881.2 89.204 Z M 652.8 38.004 L 640.2 38.004 L 640.2 64.004 L 652.8 64.004 A 21.171 21.171 0 0 0 658.156 63.388 Q 666.6 61.173 666.6 51.004 Q 666.6 40.636 657.821 38.537 A 21.652 21.652 0 0 0 652.8 38.004 Z" vector-effect="non-scaling-stroke"/></g></svg>