<svg width="309" height="193" viewBox="0 0 309 193" fill="none" xmlns="http://www.w3.org/2000/svg">
<path fill-rule="evenodd" clip-rule="evenodd" d="M99 43.9087V26.5365L114.336 35.3913L175.906 0V17.6922L114.403 52.7565L99 43.9087ZM180.963 79.8391C171.916 80.4303 160.318 79.373 144.908 70.4696V70.473L114.403 87.8626L99 79.0148V61.6426L114.336 70.4974L145.079 52.8261L145.289 52.9443C160.695 61.8339 171.916 63.465 180.963 62.8773C189.364 62.3277 197.58 59.1246 202.086 54.4398C205.304 51.0941 207.468 46.4232 208.397 42.3123L208.516 44.0722C208.516 44.0722 211.625 61.4826 202.086 71.4016C197.58 76.0864 189.364 79.2895 180.963 79.8391ZM99 96.7835V114.156L114.403 123L129.61 114.33L129.641 96.8356L114.336 105.635L99 96.7835ZM183.078 48.5448C177.63 51.2575 170.063 49.1395 170.063 49.1395L160.698 43.8426L175.906 35.1061L183.078 39.3283C190.565 44.6912 183.078 48.5448 183.078 48.5448Z" fill="white"/>
<g clip-path="url(#clip0_1_124)">
<path d="M-0.0100098 155.9H23.78V163.11H7.78003V170.34H22.55V177.55H7.78003V191.34H-0.0100098V155.9Z" fill="white"/>
<path d="M31.5101 173.63C31.4699 170.991 31.9559 168.37 32.94 165.92C33.845 163.698 35.2079 161.691 36.94 160.03C38.6866 158.404 40.7448 157.149 42.99 156.34C47.9531 154.607 53.3569 154.607 58.32 156.34C60.5711 157.162 62.6326 158.43 64.3801 160.07C66.1121 161.731 67.475 163.738 68.3801 165.96C70.2864 170.927 70.2864 176.423 68.3801 181.39C67.4762 183.61 66.113 185.614 64.3801 187.27C62.6357 188.916 60.5735 190.189 58.32 191.01C53.3569 192.743 47.9531 192.743 42.99 191.01C40.7354 190.191 38.6728 188.918 36.93 187.27C35.197 185.614 33.8339 183.61 32.93 181.39C31.9441 178.924 31.4613 176.285 31.5101 173.63ZM39.6201 173.63C39.6017 175.194 39.866 176.749 40.4001 178.22C40.8902 179.56 41.6491 180.785 42.6301 181.82C43.6093 182.85 44.7952 183.661 46.11 184.2C49.0247 185.346 52.2653 185.346 55.18 184.2C56.4948 183.661 57.6808 182.85 58.6601 181.82C59.6411 180.785 60.4 179.56 60.8901 178.22C61.9165 175.26 61.9165 172.04 60.8901 169.08C60.4076 167.728 59.648 166.492 58.6601 165.45C57.6808 164.42 56.4948 163.609 55.18 163.07C52.2653 161.924 49.0247 161.924 46.11 163.07C44.7952 163.609 43.6093 164.42 42.6301 165.45C41.6421 166.492 40.8826 167.728 40.4001 169.08C39.8707 170.538 39.6065 172.079 39.6201 173.63V173.63Z" fill="white"/>
<path d="M79.4 155.9H87.21V184.15H101.69V191.34H79.4V155.9Z" fill="white"/>
<path d="M109.9 155.9H117.71V191.34H109.9V155.9Z" fill="white"/>
<path d="M126.93 173.63C126.895 170.991 127.381 168.371 128.36 165.92C129.265 163.698 130.628 161.691 132.36 160.03C134.106 158.388 136.168 157.119 138.42 156.3C143.383 154.567 148.787 154.567 153.75 156.3C156.002 157.119 158.064 158.388 159.81 160.03C161.542 161.691 162.905 163.698 163.81 165.92C165.716 170.887 165.716 176.383 163.81 181.35C162.906 183.57 161.543 185.574 159.81 187.23C158.067 188.878 156.005 190.151 153.75 190.97C148.787 192.703 143.383 192.703 138.42 190.97C136.165 190.151 134.103 188.878 132.36 187.23C130.627 185.574 129.264 183.57 128.36 181.35C127.381 178.896 126.895 176.272 126.93 173.63V173.63ZM135.05 173.63C135.028 175.194 135.289 176.749 135.82 178.22C136.31 179.56 137.069 180.785 138.05 181.82C139.029 182.85 140.215 183.661 141.53 184.2C144.445 185.346 147.685 185.346 150.6 184.2C151.915 183.661 153.101 182.85 154.08 181.82C155.061 180.785 155.82 179.56 156.31 178.22C157.35 175.262 157.35 172.038 156.31 169.08C155.827 167.728 155.068 166.492 154.08 165.45C153.101 164.42 151.915 163.609 150.6 163.07C147.685 161.924 144.445 161.924 141.53 163.07C140.215 163.609 139.029 164.42 138.05 165.45C137.062 166.492 136.302 167.728 135.82 169.08C135.294 170.539 135.033 172.08 135.05 173.63V173.63Z" fill="white"/>
<path d="M174.52 155.9H187.69C189.439 155.893 191.184 156.061 192.9 156.4C194.426 156.692 195.88 157.279 197.18 158.13C198.416 158.967 199.418 160.106 200.09 161.44C200.864 163.072 201.234 164.865 201.17 166.67C201.23 168.46 200.888 170.24 200.17 171.88C199.559 173.219 198.612 174.376 197.42 175.24C196.166 176.104 194.751 176.709 193.26 177.02C191.547 177.38 189.8 177.554 188.05 177.54H182.34V191.34H174.53L174.52 155.9ZM182.33 170.9H187.54C188.212 170.898 188.881 170.831 189.54 170.7C190.159 170.58 190.752 170.349 191.29 170.02C191.814 169.704 192.245 169.256 192.54 168.72C192.882 168.082 193.047 167.364 193.02 166.64C193.057 165.864 192.836 165.097 192.39 164.46C191.972 163.908 191.422 163.472 190.79 163.19C190.102 162.872 189.365 162.676 188.61 162.61C187.81 162.53 187.04 162.48 186.31 162.48H182.31L182.33 170.9Z" fill="white"/>
<path d="M210.38 155.9H218.2V184.15H232.67V191.34H210.38V155.9Z" fill="white"/>
<path d="M252.66 155.9H259.12L274.55 191.34H265.73L262.73 183.82H248.95L245.95 191.34H237.33L252.66 155.9ZM255.66 166.22L251.36 177.22H259.99L255.66 166.22Z" fill="white"/>
<path d="M287.12 176.24L273.8 155.9H283.51L291.03 169.18L299.03 155.9H308.3L294.99 176.24V191.34H287.17L287.12 176.24Z" fill="white"/>
</g>
<defs>
<clipPath id="clip0_1_124">
<rect width="308.26" height="37.27" fill="white" transform="translate(0 155)"/>
</clipPath>
</defs>
</svg>
