<svg width="112" height="145" viewBox="0 0 112 145" fill="none" xmlns="http://www.w3.org/2000/svg">
<path d="M88.5 5L13.5 0.5L12 15L111.5 22L88.5 5Z" fill="#EE9510"/>
<path d="M111.5 22L72.5 145L0 138L13 15L111.5 22Z" fill="#FEA31B"/>
<path d="M36.227 56.1307C38.2538 49.8131 41.4532 45.4097 45.8252 42.9205C50.1972 40.4312 55.2806 40.0144 61.0754 41.6699C64.9216 42.7688 67.9822 44.4811 70.2575 46.8069C72.5841 49.1474 74.0566 51.8562 74.6751 54.9334C75.3449 58.0251 75.2031 61.2396 74.2497 64.5766C73.126 68.5095 71.3606 71.4857 68.9532 73.505C66.5629 75.4647 64.1119 76.5691 61.6001 76.8183L61.498 77.1759C64.0976 79.1432 65.869 81.6796 66.8122 84.785C67.7554 87.8905 67.6396 91.4991 66.4649 95.6108C65.4094 99.3054 63.7294 102.37 61.4251 104.806C59.1891 107.196 56.431 108.793 53.1508 109.596C49.9219 110.414 46.3844 110.274 42.5383 109.175C36.3845 107.417 31.9638 104.252 29.2759 99.6815C26.6394 95.1255 26.2316 89.2725 28.0524 82.1227L40.8215 85.7708C40.1237 88.4074 40.1688 90.6762 40.9569 92.5772C41.7621 94.4185 43.3441 95.6762 45.7031 96.3502C47.703 96.9215 49.4288 96.7056 50.8802 95.7023C52.4 94.654 53.4748 93.0275 54.1047 90.8226C54.9219 87.9623 54.7144 85.6794 53.4822 83.9738C52.3183 82.2233 50.0184 80.8572 46.5825 79.8756L44.121 79.1724L47.6707 66.7478L50.1322 67.4511C52.7476 68.1983 54.9948 68.2925 56.874 67.7336C58.8214 67.1298 60.1782 65.4872 60.9443 62.8056C61.5572 60.6604 61.5211 58.8453 60.8359 57.3605C60.1508 55.8757 58.9108 54.8769 57.1159 54.3641C55.1673 53.8074 53.5099 54.0751 52.144 55.1673C50.8294 56.2741 49.8057 57.8186 49.073 59.8007L36.227 56.1307Z" fill="white"/>
</svg>
