<svg width="107" height="160" viewBox="0 0 107 160" fill="none" xmlns="http://www.w3.org/2000/svg">
<path d="M29.5 8L0 28L95.5 14.5L100.5 0.5L29.5 8Z" fill="#EE9510"/>
<path d="M95 13.5L0 28L39.5 152.5L107 160L95 13.5Z" fill="#FEA31B"/>
<path d="M42.4085 107.023C43.7448 104.917 44.351 103.945 44.2271 104.108C48.0292 97.8435 50.972 92.7461 53.0555 88.8154C55.1906 84.8716 56.8215 80.8923 57.9482 76.8775C59.0748 72.8626 59.2169 69.1959 58.3743 65.8773C57.7346 63.3576 56.7442 61.5157 55.4032 60.3515C54.0621 59.1874 52.4094 58.8547 50.4451 59.3534C48.4807 59.8522 47.1562 61.137 46.4714 63.208C45.8228 65.2044 45.9041 67.8004 46.7155 70.9961L33.9214 74.2444C32.6985 68.9944 32.5212 64.3948 33.3894 60.4456C34.3092 56.4832 36.006 53.3049 38.4795 50.9106C41.0047 48.5032 44.0508 46.8467 47.6176 45.9412C53.7691 44.3793 58.8715 45.0791 62.9249 48.0405C67.03 50.9887 69.8471 55.4741 71.3762 61.4968C73.0457 68.0726 72.7114 74.6665 70.3733 81.2786C68.0196 87.8291 64.6008 94.5193 60.1169 101.349L81.0527 96.0336L84.3059 108.847L45.3809 118.73L42.4085 107.023Z" fill="white"/>
</svg>